<?xml version="1.0" encoding="UTF-8"?>
<!DOCTYPE svg PUBLIC "-//W3C//DTD SVG 1.1//EN" "http://www.w3.org/Graphics/SVG/1.1/DTD/svg11.dtd">
<!-- Creator: CorelDRAW X8 -->
<svg xmlns="http://www.w3.org/2000/svg" xml:space="preserve" width="42.3332mm" height="33.8666mm" version="1.1" style="shape-rendering:geometricPrecision; text-rendering:geometricPrecision; image-rendering:optimizeQuality; fill-rule:evenodd; clip-rule:evenodd"
viewBox="0 0 4233 3387"
 xmlns:xlink="http://www.w3.org/1999/xlink">
 <defs>
  <style type="text/css">
   <![CDATA[
    .fil0 {fill:url(#id0)}
    .fil1 {fill:url(#id1)}
   ]]>
  </style>
  <linearGradient id="id0" gradientUnits="userSpaceOnUse" x1="1907.14" y1="3092.95" x2="2214.25" y2="464.97">
   <stop offset="0" style="stop-opacity:1; stop-color:#521232"/>
   <stop offset="0.4" style="stop-opacity:1; stop-color:#911855"/>
   <stop offset="1" style="stop-opacity:1; stop-color:#D11F78"/>
  </linearGradient>
  <linearGradient id="id1" gradientUnits="userSpaceOnUse" xlink:href="#id0" x1="2899.5" y1="3060.57" x2="3217.52" y2="435.25">
  </linearGradient>
 </defs>
 <g id="Plan_x0020_1">
  <metadata id="CorelCorpID_0Corel-Layer"/>
  <g id="_2704297256944">
   <path class="fil0" d="M49 82l1546 0 -1546 1248 0 -1248zm1681 0l1497 0 -936 752 -1369 0 0 315 976 0 -819 658 -157 0 0 1529 -15 -6 -858 -693 0 -1198 1681 -1357z"/>
   <path class="fil1" d="M4184 51l0 358 -2509 2026 -557 2 0 -453 214 -173c704,-566 1408,-1131 2112,-1697 48,-38 90,-63 167,-63l573 0zm0 467l0 2120 -826 667 0 -870 -898 0 -650 0 816 -659 732 0 0 -591 826 -667z"/>
  </g>
 </g>
</svg>
